<svg 
 xmlns="http://www.w3.org/2000/svg"
 xmlns:xlink="http://www.w3.org/1999/xlink"
 width="20px" height="20px">
<path fill-rule="evenodd"  opacity="0.702" fill="rgb(255, 255, 255)"
 d="M12.828,9.998 L18.485,15.655 C19.266,16.436 19.266,17.702 18.485,18.484 C17.704,19.265 16.438,19.265 15.657,18.484 L9.1000,12.826 L4.343,18.484 C3.562,19.265 2.296,19.265 1.515,18.484 C0.734,17.702 0.734,16.436 1.515,15.655 L7.172,9.998 L1.515,4.341 C0.734,3.560 0.734,2.294 1.515,1.513 C2.296,0.731 3.562,0.731 4.343,1.513 L9.1000,7.170 L15.657,1.513 C16.438,0.731 17.704,0.731 18.485,1.513 C19.266,2.294 19.266,3.560 18.485,4.341 L12.828,9.998 Z"/>
</svg>